<svg xmlns="http://www.w3.org/2000/svg" width="200" height="200" viewBox="0 0 100 100"><path fill="#ee3e54" d="M13 27A2 2 0 1 0 13 31A2 2 0 1 0 13 27Z"/><path fill="#f1bc19" d="M77 12A1 1 0 1 0 77 14A1 1 0 1 0 77 12Z"/><path fill="#fce0a2" d="M50 13A37 37 0 1 0 50 87A37 37 0 1 0 50 13Z"/><path fill="#f1bc19" d="M83 11A4 4 0 1 0 83 19A4 4 0 1 0 83 11Z"/><path fill="#ee3e54" d="M87 22A2 2 0 1 0 87 26A2 2 0 1 0 87 22Z"/><path fill="#fbcd59" d="M81 74A2 2 0 1 0 81 78 2 2 0 1 0 81 74zM15 59A4 4 0 1 0 15 67 4 4 0 1 0 15 59z"/><path fill="#ee3e54" d="M25 85A2 2 0 1 0 25 89A2 2 0 1 0 25 85Z"/><path fill="#fff" d="M18.5 51A2.5 2.5 0 1 0 18.5 56A2.5 2.5 0 1 0 18.5 51Z"/><path fill="#f1bc19" d="M21 66A1 1 0 1 0 21 68A1 1 0 1 0 21 66Z"/><path fill="#fff" d="M80 33A1 1 0 1 0 80 35A1 1 0 1 0 80 33Z"/><g><path fill="#f29373" d="M66.7 39.3L66.7 34.3 33.3 34.3 33.3 39.3 29.7 39.3 29.7 30.7 70.3 30.7 70.3 39.3z"/><path fill="#472b29" d="M69.6,31.4V35v3.6h-2.2V35v-1.4H66H34h-1.4V35v3.6h-2.2V35v-3.6H34h32H69.6 M71,30h-5H34h-5v5v5h5 v-5h32v5h5v-5V30L71,30z"/><path fill="#f29373" d="M47.7 76.3L47.7 49.79 41.156 56.334 37.904 53.081 49.994 40.988 62.084 53.081 58.831 56.334 52.3 49.802 52.3 76.3z"/><path fill="#472b29" d="M49.994 41.979l2.261 2.261-.001.001.993.993 7.847 7.847-2.263 2.263-4.842-4.842-2.39-2.39v3.38V75.6h-3.2V51.481v-3.38l-2.39 2.39-4.853 4.853-2.263-2.263 7.847-7.847.989-.991 0 0L49.994 41.979M49.996 40l-.002.001L49.993 40l-4.243 4.243.001.001-8.837 8.837 4.243 4.243L47 51.481V77h6V51.493l5.831 5.832 4.243-4.243-8.837-8.837.001-.001L49.996 40 49.996 40zM63.5 38h-18c-.276 0-.5-.224-.5-.5s.224-.5.5-.5h18c.276 0 .5.224.5.5S63.776 38 63.5 38z"/><g><path fill="#472b29" d="M43.5,38h-1c-0.276,0-0.5-0.224-0.5-0.5s0.224-0.5,0.5-0.5h1c0.276,0,0.5,0.224,0.5,0.5 S43.776,38,43.5,38z"/></g><g><path fill="#472b29" d="M40.5,38h-4c-0.276,0-0.5-0.224-0.5-0.5s0.224-0.5,0.5-0.5h4c0.276,0,0.5,0.224,0.5,0.5 S40.776,38,40.5,38z"/></g></g></svg>